/* XPM */
static char *_3bb4e0cb4a147f2b7c72f2aabcf8cd9WWu7XZAJzeON5wH8[] = {
/* columns rows colors chars-per-pixel */
"48 48 85 1 ",
"  c None",
". c #32283C",
"X c #33283D",
"o c #33293D",
"O c #362B3F",
"+ c #362D40",
"@ c #392F40",
"# c #393041",
"$ c #3B3043",
"% c #3D3344",
"& c #3E3344",
"* c #3D3444",
"= c #403747",
"- c #423748",
"; c #423948",
": c #43394A",
"> c #453B4B",
", c #473B4B",
"< c #463C4B",
"1 c #463D4B",
"2 c #463C4C",
"3 c #473D4C",
"4 c #473D4D",
"5 c #473E4E",
"6 c #473E4F",
"7 c #483F4E",
"8 c #483F50",
"9 c #493F51",
"0 c #494050",
"q c #494051",
"w c #494151",
"e c #4A4153",
"r c #4A4252",
"t c #4A4253",
"y c #4A4354",
"u c #4B4354",
"i c #4B4454",
"p c #4B4455",
"a c #4B4456",
"s c #4B4556",
"d c #4C4557",
"f c #4D4557",
"g c #4D4658",
"h c #4D4759",
"j c #4D465A",
"k c #4C475A",
"l c #4E475B",
"z c #4E485B",
"x c #4F485B",
"c c #4D485D",
"v c #4E485C",
"b c #4F495C",
"n c #4F4A5D",
"m c #4F495E",
"M c #504B5E",
"N c #504B60",
"B c #514C60",
"V c #514D60",
"C c #524D63",
"Z c #524E63",
"A c #524E64",
"S c #534F64",
"D c #545166",
"F c #545167",
"G c #555267",
"H c #555369",
"J c #55536A",
"K c #56536B",
"L c #56546B",
"P c #56546C",
"I c #57566D",
"U c #57566E",
"Y c #57566F",
"T c #58576F",
"R c #585770",
"E c #595870",
"W c #595970",
"Q c #595971",
"! c #595972",
"~ c #595973",
"^ c #5A5973",
"/ c #5A5A72",
"( c #5A5A73",
") c #5B5B73",
"_ c #5A5A74",
/* pixels */
"                                                ",
"                                                ",
"                                                ",
"                                                ",
"        ((                                      ",
"       ((((            (((((((Kw>w              ",
"      (((((           (((((((((I7><g            ",
"     ((((((          (((((((((((w<<>M           ",
"     (((((I         ((((((((((((i<<<<g          ",
"     ((((Kw        (((((((((((((a<<<>5n         ",
"     g005<<       ((((((((((((((i<<<<<<g        ",
"      <<<<u      (((((((((((((((a<<<<<<<g       ",
"       zz       (((((((((BnG((((i<<<<<<<5g      ",
"               ((((((((T5<<<M(((a<<<<<<<><n     ",
"             _(((((((((z>><<<R((i<<<<<<<>>5g    ",
"       ((((((((((((((((f<<<<<L((f<<<<<<<,5>8    ",
"     ((((((((((((((((((M<<<<5(((u<<<<<<<<<<<    ",
"    (((((((((((((((((((Ea<<5G(((f<<<<<<<<<<<    ",
"    (((((((((((((((((((((KDI((((w<<<<<<<<<<<    ",
"    (((((((((((T(((((((((((((((E5<<<<<<<<<<<    ",
"    ((((((((((B<w((((((((((((((n<<<<<<<<<<<<    ",
"    ((((((((((g5>K((((((((((((B><<<<<<<<<<<<    ",
"    ((((((((((Kwz((((((((((((D5<<<<<<<<<<<<<    ",
"    ((((((((((((((((((((((__B<<<<<<<<<<<<<<<    ",
"    (((((((((((((((((((((()D<<<<<<<<<<<<<<<<    ",
"    ((((((((((((((((((((((B<<<<<<<<<<<<<<<<<    ",
"    (((((((((((((((((((((D<<<<<<,<<<<<<<<<<<    ",
"    G((((((_((((((((((((B5<<<<<<=$*<<<<<<<<<    ",
"    7MIIIIIIIIIIIIIIIIKa<<<<<<<;o..#<<<<<<<<    ",
"    g5>><<5>>>5<<<<5<<<<<<<<<<<*...o<<<<<<<<    ",
"     a5><<<<<<<<<<<<<<<<<<<<<<<*o..O<<<<<<<<    ",
"      f><<<<<<<<<<<<<<<<<<<<<<<5*OO><<<<<<>5    ",
"       a<<<<<<<<<<<<<<<<<<<<<<<<<<<<<<<<<<<g    ",
"        a<<<<<<<<<<<<<<<<<<<<<<<<<<<<<<<<<a     ",
"         a<<<<<<<<<<<<<<<<<<<<<<<<<<<<<<<a      ",
"          a<<<<<<<<<<<<<<<<<<<<<<<<<<<<>a       ",
"           g<<<<<<<<<<<<<<<<<<<<<<<<<<>f        ",
"            ni50888888888888888888888un         ",
"                                                ",
"                                      >,        ",
"                                     <<<5       ",
"                                     <<<<       ",
"                                     <<<<       ",
"                                      <<        ",
"                                                ",
"                                                ",
"                                                ",
"                                                "
};
