/* XPM */
static char *_f62138ecbf74fbda99e533c1d2f315fdiO4x8khsG2UhkJn[] = {
/* columns rows colors chars-per-pixel */
"48 48 218 2 ",
"   c None",
".  c #7B3433",
"X  c #7B3434",
"o  c #15234C",
"O  c #17234D",
"+  c #15254C",
"@  c #15244D",
"#  c #16244C",
"$  c #17244C",
"%  c #16244D",
"&  c #17244D",
"*  c #16254D",
"=  c #17254D",
"-  c #16244E",
";  c #17244E",
":  c #16254E",
">  c #17254E",
",  c #16244F",
"<  c #17254F",
"1  c #17264E",
"2  c #18254D",
"3  c #19254D",
"4  c #1A254D",
"5  c #19264D",
"6  c #1A264D",
"7  c #18254E",
"8  c #19254E",
"9  c #18254F",
"0  c #18264E",
"q  c #19264E",
"w  c #19274E",
"e  c #18264F",
"r  c #19264F",
"t  c #18274F",
"y  c #1B264E",
"u  c #1B274F",
"i  c #1D284E",
"p  c #182650",
"a  c #1D2A50",
"s  c #1C2A51",
"d  c #1E2A50",
"f  c #1F2D54",
"g  c #212D52",
"h  c #212D53",
"j  c #222E53",
"k  c #242E52",
"l  c #242E53",
"z  c #242F53",
"x  c #212D54",
"c  c #242F54",
"v  c #253154",
"b  c #263155",
"n  c #273255",
"m  c #263156",
"M  c #273156",
"N  c #293355",
"B  c #283357",
"V  c #2A3456",
"C  c #283359",
"Z  c #2B355A",
"A  c #2C3658",
"S  c #323B5A",
"D  c #333B5A",
"F  c #343C5B",
"G  c #353D5B",
"H  c #313B5D",
"J  c #323C5F",
"K  c #363E5C",
"L  c #373F5D",
"P  c #383F5D",
"I  c #563F50",
"U  c #39405D",
"Y  c #38405E",
"T  c #39405E",
"R  c #39415E",
"E  c #3A415E",
"W  c #3A415F",
"Q  c #3B425E",
"!  c #3C435F",
"~  c #3C4360",
"^  c #3D4460",
"/  c #3E4460",
"(  c #3F4561",
")  c #3F4661",
"_  c #3E4665",
"`  c #3F4766",
"'  c #3F4767",
"]  c #574050",
"[  c #594150",
"{  c #594151",
"}  c #5A4050",
"|  c #5A4150",
" . c #6D4950",
".. c #6E4851",
"X. c #6F4A51",
"o. c #704A52",
"O. c #7B4E51",
"+. c #7B4E52",
"@. c #414761",
"#. c #424762",
"$. c #434862",
"%. c #424863",
"&. c #434863",
"*. c #444963",
"=. c #474B64",
"-. c #464B65",
";. c #474C65",
":. c #484C65",
">. c #494D65",
",. c #494D66",
"<. c #4A4E66",
"1. c #4B4F67",
"2. c #404868",
"3. c #414968",
"4. c #434A68",
"5. c #444B6B",
"6. c #444C6A",
"7. c #454C6B",
"8. c #474E6C",
"9. c #484F6B",
"0. c #494F6C",
"q. c #4C5067",
"w. c #4D5167",
"e. c #4D5168",
"r. c #4E5168",
"t. c #4E5169",
"y. c #4F5268",
"u. c #505269",
"i. c #52546A",
"p. c #53556B",
"a. c #55576B",
"s. c #56576B",
"d. c #57596C",
"f. c #595A6D",
"g. c #5A5B6E",
"h. c #5B5C6E",
"j. c #5C5D6E",
"k. c #5D5D6E",
"l. c #5C5C6F",
"z. c #5C5D6F",
"x. c #5D5D6F",
"c. c #5E5E6F",
"v. c #4E5471",
"b. c #505571",
"n. c #515772",
"m. c #535874",
"M. c #545974",
"N. c #565A74",
"B. c #565B75",
"V. c #5D5E70",
"C. c #5E5E70",
"Z. c #5F5F70",
"A. c #5A5E77",
"S. c #5B5F78",
"D. c #5D6179",
"F. c #5D607A",
"G. c #5F627B",
"H. c #60637B",
"J. c #67697F",
"K. c #FD4A13",
"L. c #FE4A13",
"P. c #FE521C",
"I. c #FE531D",
"U. c #FE551F",
"Y. c #FE5E2A",
"T. c #FE5F2B",
"R. c #FE6B39",
"E. c #FE6D3B",
"W. c #FE6E3C",
"Q. c #8D5752",
"!. c #8F5752",
"~. c #8F5753",
"^. c #905852",
"/. c #915852",
"(. c #935A52",
"). c #945952",
"_. c #A76154",
"`. c #A96253",
"'. c #AB6353",
"]. c #AC6453",
"[. c #AF6453",
"{. c #AA6354",
"}. c #AD6454",
"|. c #B06554",
" X c #B26654",
".X c #E37B56",
"XX c #E57C56",
"oX c #E67C56",
"OX c #FD8152",
"+X c #FD8253",
"@X c #FE8252",
"#X c #FD8254",
"$X c #FE8354",
"%X c #FE8455",
"&X c #FD8557",
"*X c #FE8456",
"=X c #FE8556",
"-X c #FE8557",
";X c #FE8657",
":X c #666980",
">X c #676980",
",X c #676A80",
"<X c #686A80",
"1X c #686A81",
"2X c #696B81",
"3X c #6B6C82",
"4X c #6C6E82",
"5X c #6E6F84",
"6X c #6F7085",
"7X c #707184",
"8X c #707185",
"9X c #707186",
"0X c #717286",
"qX c #727386",
"wX c #737387",
"eX c #747487",
"rX c #767688",
"tX c #767689",
/* pixels */
"                                                                                                ",
"                                                                                                ",
"                                                                                                ",
"                                                                                                ",
"          ; ; # $                                                   ; ;                         ",
"        ; j -.S # #                                               ; ; ; ;                       ",
"        # =.c.H.K $ 0                                             ; ; ;                         ",
"        # D c.k.D./ ; 0                                             ;                           ",
"        # ; L Z.Z.Z.w.n ; ; ;                                                                   ",
"          ; ; K Z.Z.H.c.w.K v # ; ; ; # ; ; ; O ; ; $ $ 0                                       ",
"            # ; U c.k.c.Z.Z.Z.h.i.<.=.$.-.;.w.w.w.=.Q A p O 0                                   ",
"              ; # U Z.c.Z.Z.Z.Z.Z.Z.c.c.D.c.Z.Z.c.H.c.Z.c.#.j 0 ;                               ",
"                # # K Z.Z.Z.Z.Z.Z.Z.Z.Z.Z.Z.Z.c.Z.c.Z.Z.C.Z.C.~ $ 0                             ",
"                  ; ; L Z.Z.Z.Z.Z.Z.Z.Z.Z.c.c.s.s.c.Z.c.Z.Z.Z.Z.y.i 0                           ",
"                    ; ; Y c.Z.Z.c.c.Z.s.R k ; O ; 0 k ! s.C.Z.Z.k.s.d 0                         ",
"                      ; # L Z.Z.Z.D.%.w $ [ ^.|.[.).| 0 0 R C.Z.H.C.u.; 0                       ",
"                      ; B # Y c.Z.Z.@.#  .=X=X;X;X;X;XXX .; N h.Z.Z.Z.! ;                       ",
"                    ; f wX' ; L Z.Z.Z.K # +.=X;X;X;X;X;X;X}.0 N c.Z.Z.c.j 0                     ",
"                    ; n.tXtX' ; U c.Z.Z.Y # O.OX+X=X;X;X;X;X}.0 ! c.Z.Z.#.O                     ",
"                  ; ; wXtXtX3X; # U Z.Z.Z.Y # . K.P.R.=X;X;X;X .i f.Z.Z.c.0 O                   ",
"                  ; J rXtXtX4.0  .# L c.Z.Z.Y ; . L.L.Y.;X;X;X.X$ R Z.Z.H.N p                   ",
"                  ; 9.rXtXtXn [ =XO.; Y Z.Z.Z.Y o . L.L.W.;X;X;X[ v Z.Z.c.! ;                   ",
"                  ; B.tXtX6X; Q.=X;X+.; Y Z.Z.Z.K o . L.Y.;X;X;X(.# h.Z.Z.=.;                   ",
"                  ; D.tXtXJ.; '.=X;X#XX ; K Z.Z.c.P o . L.#X;X;X|.# i.Z.Z.w.;                   ",
"                  ; D.tXtXJ.# '.;X;X=XK.. @ Y c.Z.Z.! O . +X=X=X].; y.Z.Z.w.;                   ",
"                  ; B.tXtX6X; ^.;X=X=XP.K.. ; Y Z.Z.Z.R O +.;X;XQ.; s.Z.Z.q.;                   ",
"                  ; 7.rXtXtXv [ ;X;X;XW.K.K.X ; P Z.Z.Z.R ; +.=X] i Z.Z.Z.<.;                   ",
"                  ; J eXtXtX' 0 XX;X=X=XT.K.K.X O P Z.Z.D.R ;  .# U Z.Z.Z.=.#                   ",
"        ;         O ; wXtXtX>X0  .;X;X;X;XW.I.K.. # Y c.k.Z.Q # 0 s.Z.Z.Z.%.;         ;         ",
"    ; ; ; ;         ; v.tXtXtX' 0  X;X;X;X;X=X=XOXO.; L Z.Z.Z.@.! Z.Z.Z.Z.=.;       ; ; ; ;     ",
"      ; ;           ; j wXtXtXwXZ i  X;X;X;X;X;X=X&X+.O U c.Z.Z.Z.Z.Z.Z.Z.q.;       # ; ;       ",
"        ;             ; 0.tXtXtX6XZ ; o.XX;X;X;X;X=X=X .# U Z.Z.Z.Z.Z.Z.Z.i.;         #         ",
"                      ; ; G.rXrXtXwX' p p ] Q._._.Q.] ; # ; U Z.Z.Z.Z.Z.Z.h.;                   ",
"                        ; s 3XrXtXtXtX2X' n ; p ; ; B 6.3X' # Y Z.Z.Z.Z.Z.Z.v @                 ",
"                          ; s G.rXrXrXrXrXtX0X1XJ.wXtXtXtXeX' ; U Z.Z.Z.Z.Z.U ;                 ",
"                            ; ; 9.wXrXrXrXtXtXtXtXtXtXtXtXtXwXB + U Z.Z.Z.Z.w.;                 ",
"                              ; ; j v.6XrXrXrXwXtXtXtXtX6Xb.f ; @ @ L c.Z.Z.Z.n 0               ",
"                                  ; ; ; J 6.M.D.D.M.7.J ; ; 0     @ ; L Z.Z.Z.w.; ;             ",
"                                      ; ; ; ; ; ; ; ; ; ;           ; ; Y Z.Z.Z./ ; ;           ",
"                                                                      ; ; K Z.Z.Z.R ; ;         ",
"                                                                        # ; U Z.Z.Z.K #         ",
"                                                                          # + U Z.Z.=.;         ",
"                                                        ; ;                 ; ; S <.v 0         ",
"                                                      ; # ; ;                 ; ; ; #           ",
"                                                        ; ;                                     ",
"                                                          ;                                     ",
"                                                                                                ",
"                                                                                                "
};
