/* XPM */
static char *a45d2bcc08f94ac0f3ae017e17453402v1fJiJvoAegQHlQr[] = {
/* columns rows colors chars-per-pixel */
"48 48 59 1 ",
"  c None",
". c #747474",
"X c gray46",
"o c #767676",
"O c #777777",
"+ c gray47",
"@ c #797979",
"# c gray48",
"$ c #7B7B7B",
"% c #7C7C7C",
"& c gray49",
"* c #7E7E7E",
"= c gray50",
"- c #808080",
"; c #818181",
": c gray51",
"> c #838383",
", c #848484",
"< c gray53",
"1 c #888888",
"2 c #898989",
"3 c gray54",
"4 c #8B8B8B",
"5 c gray55",
"6 c #8D8D8D",
"7 c #8E8E8E",
"8 c #909090",
"9 c gray57",
"0 c #929292",
"q c #939393",
"w c gray58",
"e c #959595",
"r c gray59",
"t c #979797",
"y c #989898",
"u c gray60",
"i c #9A9A9A",
"p c #9B9B9B",
"a c #9D9D9D",
"s c gray62",
"d c #9F9F9F",
"f c #A0A0A0",
"g c gray63",
"h c #A2A2A2",
"j c #A7A7A7",
"k c gray66",
"l c #A9A9A9",
"z c #AEAEAE",
"x c #AFAFAF",
"c c #B1B1B1",
"v c #B2B2B2",
"b c #B4B4B4",
"n c gray71",
"m c #B7B7B7",
"M c gray72",
"N c #B9B9B9",
"B c #BCBCBC",
"V c gray74",
"C c gray",
/* pixels */
"                                                ",
"                                                ",
"                                                ",
"                                                ",
"                                                ",
"                    ssfsssss                    ",
"                 ssssssssssssss                 ",
"               ssssssssssssssssss               ",
"             ssssssssssssssssssssss             ",
"            sssssssfssssssssssssssss            ",
"           ;sss8;+XX+2sssssssssssssss           ",
"          X8fw*XXXXXXX2sssssssssssssss          ",
"         XXiwXXXXXXXXX+sss2X+,issssssss         ",
"        XXX8XXXXXXXXXX+ss2XXXX+sssssssss        ",
"        XXXXXXXXXXXXXX2ss*XXXXX7ssss,+2s        ",
"       XXXXXXXXXXXXXX*sssXXXXXX*ssss+XX7s       ",
"       XXXXXXXXXXXXXXwsssXXXXXXX7sss*XX*s       ",
"      XXXXXXXXXXXXXXXsssiXXXXXXXX,is7XXXss      ",
"      XXX;;XXXXXXXXXX;is;XXXXXXXXX+wi2+2ss      ",
"      XXX**XXXX*;,+XXXXXXXXXXXXXXXX+isfsss      ",
"     XXXXXXXXXX;,,;XXXXX..XXXXXXXXXX;ssssss     ",
"     XXXXXXXXXX;;,;XXXXXXsBsXXXXXXXXX;issss     ",
"     ;XXXXX*;*X+;;+XXXXXsCCBXXXXXXXXXXX2sss     ",
"     7XXXXX;;;XXXXXXXXX8CCCC+XXXXXXXXXX+sss     ",
"     fXXXXX*,*XXXXXXX8mBBCBC,XXXXXXXXXX*sss     ",
"     B+XXXXXXXXXXXXXXmCCCBCBkXXXXX8s8++8sss     ",
"     CwXXXXXXXXXXXXXXBCBBCBCCs+XXXisfssssss     ",
"     BB*XXXXXXXXXXXX.jBCCBCBCCv7XX;isssssss     ",
"      Cz+XXXXXXXXXXXX7CBCBCBBCBB*XX+ssssssv     ",
"      CCm7+XXXXXXXXXX+CCBCBCCBBCj*X,ssssfm      ",
"      CBCBCzXXXXXXXXX+CBCBCBCBCBCBCmkfskBC      ",
"       CBCBC+XXXXXXXX*BCBCBCBCBCBCCCCCCBB       ",
"       CCCBC2XXXXXXXXwBCBCBCBCBCBCBCBCBCC       ",
"        CBCBv+XXXXXX*BCBCBCBCBCBCBCBCBCB        ",
"        BCBCBmw*X+,wBCBCBCBCBCBCBCBCBCCC        ",
"         CCBBCCCCCCBBBCBCBCBCBCBCBCBCBC         ",
"          CCCBCBBCBCBCBCBCBCBCBCBCCBCB          ",
"           CBCBCCBCBCBCBCBCBCBCBCBBCC           ",
"            CBCBBCBCBCBCBCBCBCBCBCBC            ",
"             CBCCBCBCBCBCBCBCBCBCBC             ",
"               CCCCBCBBCCBCBBCCCC               ",
"                 CBCBCCCBCBCCBC                 ",
"                    CCCCCBCC                    ",
"                                                ",
"                                                ",
"                                                ",
"                                                ",
"                                                "
};
