/* XPM */
static char *_9c5db4bdb834ce5e8be3e3d5a8cfd42snZxOmhgX3TQdvnH[] = {
/* columns rows colors chars-per-pixel */
"48 48 239 2 ",
"   c None",
".  c #3F9B52",
"X  c #3D9758",
"o  c #3C9759",
"O  c #3C965B",
"+  c #3B955D",
"@  c #3B965D",
"#  c #3D9858",
"$  c #368F6A",
"%  c #358E6C",
"&  c #348C6F",
"*  c #348D6F",
"=  c #379166",
"-  c #399362",
";  c #389263",
":  c #3B9363",
">  c #399460",
",  c #3F9562",
"<  c #389264",
"1  c #379068",
"2  c #2F867C",
"3  c #328A74",
"4  c #308977",
"5  c #429F48",
"6  c #429F49",
"7  c #419D4C",
"8  c #419E4C",
"9  c #409D4E",
"0  c #409B50",
"q  c #409C50",
"w  c #43A047",
"e  c #45A046",
"r  c #44A147",
"t  c #45A147",
"y  c #47A146",
"u  c #46A147",
"i  c #47A147",
"p  c #48A146",
"a  c #4BA346",
"s  c #4FA446",
"d  c #42A048",
"f  c #44A048",
"g  c #52A546",
"h  c #53A546",
"j  c #55A745",
"k  c #57A745",
"l  c #5CA845",
"z  c #5EA945",
"x  c #62AB44",
"c  c #63AB44",
"v  c #64AC45",
"b  c #66AC44",
"n  c #6CAE43",
"m  c #6DAE43",
"M  c #6FAF43",
"N  c #6AAC44",
"B  c #65A94A",
"V  c #76AF46",
"C  c #74AD4B",
"Z  c #72AB4F",
"A  c #72AC4E",
"S  c #73B043",
"D  c #76B143",
"F  c #77B143",
"G  c #79B142",
"H  c #78B242",
"J  c #7BB342",
"K  c #7CB342",
"L  c #7DB343",
"P  c #7AB145",
"I  c #7AB244",
"U  c #79B147",
"Y  c #7DB446",
"T  c #7EB447",
"R  c #77B048",
"E  c #6DA755",
"W  c #6FA952",
"Q  c #67A35B",
"!  c #66A35C",
"~  c #68A558",
"^  c #70A951",
"/  c #70AA50",
"(  c #5F9D65",
")  c #57966F",
"_  c #57976F",
"`  c #5B996B",
"'  c #5C9B69",
"]  c #58986E",
"[  c #4D8F7C",
"{  c #4F9179",
"}  c #569671",
"|  c #549573",
" . c #529376",
".. c #5A9970",
"X. c #619E63",
"o. c #57AB64",
"O. c #57AA66",
"+. c #58AA65",
"@. c #58AB66",
"#. c #5DAE6E",
"$. c #5FAE70",
"%. c #5FAE71",
"&. c #7EB761",
"*. c #63B072",
"=. c #71B470",
"-. c #81B750",
";. c #81B652",
":. c #87BA62",
">. c #88BB63",
",. c #88BB67",
"<. c #88BC65",
"1. c #8BBD6D",
"2. c #8BBD6F",
"3. c #8BBE70",
"4. c #297F8B",
"5. c #287D8F",
"6. c #267A94",
"7. c #22769D",
"8. c #367E97",
"9. c #367F97",
"0. c #357D99",
"q. c #347C9A",
"w. c #317A9D",
"e. c #317B9F",
"r. c #1D6FAA",
"t. c #1D6EAC",
"y. c #1D6FAC",
"u. c #1C6EAE",
"i. c #1F72A5",
"p. c #1F71A7",
"a. c #1E71A8",
"s. c #1E70A9",
"d. c #1E71A9",
"f. c #1B6DB0",
"g. c #1F6DB3",
"h. c #196AB5",
"j. c #1A6BB4",
"k. c #1E6BB5",
"l. c #1767BB",
"z. c #1667BC",
"x. c #1767BD",
"c. c #1665BF",
"v. c #1566BF",
"b. c #1766BE",
"n. c #1666BF",
"m. c #1768BA",
"M. c #1968BB",
"N. c #1969BB",
"B. c #1C6AB8",
"V. c #2174A1",
"C. c #2974A7",
"Z. c #2F79A1",
"A. c #2370AF",
"S. c #2470AE",
"D. c #2974A8",
"F. c #216FB1",
"G. c #226EB0",
"H. c #206DB3",
"J. c #1565C0",
"K. c #1666C0",
"L. c #1967C1",
"P. c #1968C1",
"I. c #216EC5",
"U. c #226EC5",
"Y. c #2571C0",
"T. c #317ACA",
"R. c #337BCA",
"E. c #357DCB",
"W. c #367DCC",
"Q. c #2C8383",
"!. c #2D8480",
"~. c #2A8088",
"^. c #2A8089",
"/. c #3C8291",
"(. c #41868B",
"). c #75B991",
"_. c #75BA92",
"`. c #76BB94",
"'. c #3B80CD",
"]. c #3C81CE",
"[. c #3D82CE",
"{. c #3E83CF",
"}. c #508FD5",
"|. c #5091D6",
" X c #5C99D9",
".X c #5D9BD8",
"XX c #78ACE3",
"oX c #79AEE4",
"OX c #92C284",
"+X c #92C285",
"@X c #97C692",
"#X c #A2CCB0",
"$X c #A2CDB1",
"%X c #A2CDB2",
"&X c #A5CFBC",
"*X c #A6D0BE",
"=X c #A7D1BF",
"-X c #81B9CC",
";X c #83B5E7",
":X c #84B6E7",
">X c #86B7E8",
",X c #8CC1CF",
"<X c #9CCECD",
"1X c #A0CFCF",
"2X c #A3D0CD",
"3X c #ABD3CD",
"4X c #94C2EA",
"5X c #92C0EC",
"6X c #93C1ED",
"7X c #ACD6E5",
"8X c #B3D8E4",
"9X c #B3D9E4",
"0X c #B4D9E5",
"qX c #B2D9ED",
"wX c #B3D9EE",
"eX c #A7CFF3",
"rX c #A6CEF4",
"tX c #A7D0F4",
"yX c #AFD5F7",
"uX c #B7DCF5",
"iX c #B7DCF7",
"pX c #B8DCF6",
"aX c #B8DDF7",
"sX c #BADDF7",
"dX c #B7DBF9",
"fX c #BADDFA",
"gX c #BBDDFA",
"hX c #BADDFB",
"jX c #BBDDFB",
"kX c #BADEFA",
"lX c #BADEFB",
"zX c #BBDEFB",
"xX c #BADFFB",
"cX c #BBDFFB",
"vX c #BCDDFB",
"bX c #BCDEFB",
"nX c #BADDFC",
"mX c #BBDDFC",
"MX c #BBDEFC",
/* pixels */
"                                                                                                ",
"                                                                                                ",
"                                                                                                ",
"                                      zXzXzXbXzXzXbXzXzXbX                                      ",
"                                MXzXzXzXzXzXzXzXzXzXzXzXzXzXzXMX                                ",
"                            zXzXzXzXzXzXzXzXMXMXzXzXzXMXzXzXzXzXzXzX                            ",
"                        zXzXzXzXzXzXrXXX}.R.I.K.L.I.R.}.XXeXzXzXzXzXzXzX                        ",
"                      zXzXzXzXzX,X].K.K.K.K.K.K.K.K.K.K.K.K.].:XzXzXzXzXbX                      ",
"                    zXzXzXzX<Xo.a.J.J.J.J.J.J.J.J.J.J.J.J.J.J.J.R.>XbXbXbXMX                    ",
"                  zXzXzXuX_.w 7 v.J.J.J.J.J.J.J.J.J.J.J.J.J.J.J.J.K..XzXzXMXzX                  ",
"                zXzXzXqX#.w w d s.J.J.J.J.J.J.J.J.J.J.J.J.J.J.J.K.J.V.#.qXbXMXzX                ",
"              zXzXzXqXo.w w w w . 1 3 Q.f.J.J.J.J.J.J.J.J.J.J.J.K.K.O w @.qXMXzXbX              ",
"            zXzXzXuX#.w w w w w w w w w o c.J.J.J.J.J.J.J.J.J.J.K.5.5 w e $.uXzXzXzX            ",
"            zXzXzX).w w w w w w w w w w w c.J.J.J.J.J.J.J.J.J.J.l.. w w d d `.MXzXzX            ",
"          zXzXzX1X5 e w w w w w w w w w 5 c.J.J.J.J.J.J.J.J.J.l.% w w w w w e 2XzXzXcX          ",
"          zXzXzX&.5 e w w w w w w w w w 5 J.J.J.J.J.J.J.J.c.r.o w w w w w w j :.zXzXzX          ",
"        zXzXzX*XJ z w w w w w w w w w w w J.J.J.J.J.J.J.J.J.. w w w w w w w M L =XzXzXzX        ",
"        zXzXzX1.L S w w w w w w w w w w w J.J.J.J.J.J.J.J.J.* w w w w w w p J L 1.zXzXzX        ",
"        zXzX9XL J L e w w w w w w w w w . c.J.J.J.J.J.J.J.J.r.5 w w w w 7 B L J L 9XzXzX        ",
"      zXzXzX#XL K J k w w w w 5 w w w # 6.J.J.J.J.J.J.J.J.a.+ w w o 4.u.n.( J L J %XzXzXzX      ",
"      zXzXzXOXJ K K D y w w w ; i.m.J.J.J.J.J.J.J.J.J.J.r.d d e Q.c.v.J.c.8.K K L OXzXzXbX      ",
"      zXzXzX<.L K K L c w w w r.J.J.J.J.J.J.J.J.J.J.J.J.h.d w + J.J.J.J.c.H.K K J <.zXzXzX      ",
"      zXzXzX-.K K J K D 5 w 5 c.J.J.J.J.J.J.J.J.J.J.J.J.J.* + 7.J.J.J.J.K.B.K K K ;.zXzXzX      ",
"      zXzXcXL K K L /.c.i.. . c.J.J.J.J.J.J.J.J.J.J.J.J.J.K.K.c.J.J.J.J.J.Z.K K K T zXzXzX      ",
"      zXzXzX..K K K c.K.J.4.= v.J.J.J.J.J.J.J.J.J.J.J.J.J.J.J.J.K.M.H.0.} P K K K T zXzXzX      ",
"      zXzXzXY.X.K J D.K.v.c.J.J.J.J.J.J.J.J.J.J.J.J.J.J.J.C._ W P K K K J J K K K ;.zXzXzX      ",
"      zXzXzXE.c.{ J J Q c.J.J.J.J.J.J.J.J.J.J.J.J.J.J.J.w.P J J K K K K K K K K K ,.zXzXzX      ",
"      zXzXzX|.c.K.8.Z J q.J.J.J.J.J.J.J.J.J.J.J.J.J.J.J.Q K K K K K K K K K K K K +XzXzXbX      ",
"      bXzXzXXXc.J.J.B._ J L D w 5 8 2 c.c.c.v.J.J.J.J.J.P K K K K K K K K K K K K %XMXzX        ",
"        zXzXrXK.J.J.J.K._ J J e w w w = c.K.J.J.J.J.J.J.C J K K K K K K K K K K K 0XzXzX        ",
"        zXzXzX].J.J.J.J.H.K L h w w w w - i.c.J.J.J.K.J.` L K K K K K K K K K K 3.zXzXzX        ",
"        MXzXzX;XJ.J.J.K.K.P J n w w w w w w h  .J.J.K.K.S./ K K K K K K K K K K =XzXzXMX        ",
"          zXzXzXR.J.J.J.J.W J K n s e e h x J D K.J.J.J.J.k.[ W K K K K J L J >.zXzXzX          ",
"          zXzXzX5XK.K.K.J.` K K K K J J J J K Z K.J.J.J.J.J.J.J.: h x J L J L 3XzXzXzX          ",
"            zXzXMX XK.K.c.(.K K K K J J J K K } J.J.J.J.J.J.J.J.a.5 8 p b L @XzXzXzX            ",
"            zXzXzXdXW.K.K.S.K K K K K J K K ~ g.J.J.J.J.J.J.J.J.c.3 5 5 w =.sXzXzXbX            ",
"              bXzXzXyXR.K.K.E K K K K J l , J.J.J.J.J.J.J.J.J.J.K.h.. w o.qXzXzXzX              ",
"                zXzXzXyXW.K.[ K K J m p 5 i.J.J.J.J.J.J.J.J.J.J.J.K.~.*.wXcXzXzX                ",
"                  zXzXzXdX Xe.K J S e w $ c.J.J.J.J.J.J.J.J.J.J.J.P..XzXbXzXzX                  ",
"                    zXzXzXMX4X:.J k w w i.J.J.J.J.J.J.J.J.J.J.J.R.>XbXbXzXzX                    ",
"                      bXzXzXzXzX&X*.f O K.K.K.K.J.K.K.K.K.K.].>XzXzXzXzXzX                      ",
"                        zXzXzXzXzXzX7X-X|.E.I.L.L.I.E.|.oXtXbXzXzXzXzXbX                        ",
"                            zXzXzXzXzXzXMXzXzXzXMXzXzXzXMXzXzXzXzXzX                            ",
"                                MXbXzXzXMXzXzXzXzXzXzXzXzXzXzXMX                                ",
"                                      zXzXzXzXzXzXzXzXzXzX                                      ",
"                                                                                                ",
"                                                                                                ",
"                                                                                                "
};
