/* XPM */
static char *_ec02ae80acc4cc795d61eb1794dbd4dhrOFhsalqOKkLjOY[] = {
/* columns rows colors chars-per-pixel */
"48 48 153 2 ",
"   c None",
".  c #2E265B",
"X  c #32235D",
"o  c #38265F",
"O  c #2F2B61",
"+  c #332563",
"@  c #302C62",
"#  c #3D2964",
"$  c #34276A",
"%  c #36296D",
"&  c #3E2B6D",
"*  c #2F3465",
"=  c #303265",
"-  c #33336F",
";  c #372A71",
":  c #382B73",
">  c #353571",
",  c #383076",
"<  c #353B75",
"1  c #393479",
"2  c #373B7C",
"3  c #393F7F",
"4  c #462A61",
"5  c #4C2C63",
"6  c #432D6B",
"7  c #522F62",
"8  c #543062",
"9  c #5D3467",
"0  c #5A336E",
"q  c #493073",
"w  c #40357A",
"e  c #4C3379",
"r  c #55367B",
"t  c #58377A",
"y  c #5D397D",
"u  c #673768",
"i  c #6C396C",
"p  c #643974",
"a  c #643B7F",
"s  c #6E3E7C",
"d  c #763C70",
"f  c #783E72",
"g  c #334375",
"h  c #304972",
"j  c #37407C",
"k  c #364A7E",
"l  c #33547C",
"z  c #564B73",
"x  c #5D5277",
"c  c #7F4375",
"v  c #7E447C",
"b  c #874779",
"n  c #964A7D",
"m  c #673E81",
"M  c #6B3E82",
"N  c #394381",
"B  c #364B80",
"V  c #394B86",
"C  c #394C88",
"Z  c #345582",
"A  c #355D86",
"S  c #38568D",
"D  c #375F8E",
"F  c #385D91",
"G  c #33648A",
"H  c #376796",
"J  c #396696",
"K  c #366D94",
"L  c #386897",
"P  c #376E9C",
"I  c #3A6A99",
"U  c #377295",
"Y  c #387797",
"T  c #39729E",
"R  c #357A9F",
"E  c #397B9E",
"W  c #3C75A1",
"Q  c #3C7DA5",
"!  c #724083",
"~  c #784482",
"^  c #655C90",
"/  c #726894",
"(  c #776E9E",
")  c #7F77A2",
"_  c #824580",
"`  c #874984",
"'  c #8C4981",
"]  c #834A88",
"[  c #8B4C8B",
"{  c #944D89",
"}  c #9F5185",
"|  c #97518F",
" . c #99518E",
".. c #9C5491",
"X. c #A65689",
"o. c #A9578A",
"O. c #A95A8D",
"+. c #B05C8F",
"@. c #A65690",
"#. c #AB5791",
"$. c #A75890",
"%. c #AB5B93",
"&. c #B45D94",
"*. c #BC5F96",
"=. c #B15D98",
"-. c #817996",
";. c #867E9E",
":. c #C4659A",
">. c #C9659A",
",. c #CD699D",
"<. c #D26097",
"1. c #D4699E",
"2. c #DC6B9F",
"3. c #C66AA0",
"4. c #CA6BA1",
"5. c #D56CA1",
"6. c #DD6DA2",
"7. c #DE73A5",
"8. c #E26DA2",
"9. c #E372A5",
"0. c #3785A2",
"q. c #3C82A2",
"w. c #3989A7",
"e. c #3E86AA",
"r. c #3C8CAC",
"t. c #3C91AC",
"y. c #3D8EB0",
"u. c #3C94B2",
"i. c #3C9BB5",
"p. c #3B9FB9",
"a. c #3CA4BC",
"s. c #39A8BE",
"d. c #4199B4",
"f. c #429DB8",
"g. c #40A8BF",
"h. c #40A3BC",
"j. c #3EA7C0",
"k. c #3EABC2",
"l. c #44AAC2",
"z. c #8B839D",
"x. c #8C84A9",
"c. c #9A94AA",
"v. c #9F99B2",
"b. c #A099B3",
"n. c #AFAABA",
"m. c #B7B4C2",
"M. c #BFBBCC",
"N. c #C4C0D0",
"B. c #CFCDD6",
"V. c #D2CFD9",
"C. c #D7D5DB",
"Z. c #D7D4DC",
"A. c #D4D1DA",
/* pixels */
"                                                                                                ",
"                                                                                                ",
"                                    : : : : : : : : : : : ;                                     ",
"                              : : : : : : : : : : : : : : : : : :                               ",
"                          : : : : : : : : : : : : : : : : : : : : : ;                           ",
"                      : : : : : : : : : : : : : : : : : : : : : : : : : :                       ",
"                    : : : : : : : : : : : : : : : : : : : : : : : : : : : ;                     ",
"                  : : : : : : : : : : : : : : : : : : : : : : : : : : : : ; :                   ",
"                : : : : : 1 : : : : : : : : : : : : : : : : : : ; : 1 : : : : :                 ",
"              : : : : : r.s.2 : : : : : : : : 5.5.: : : : : : : ; 3 k.y.: : : : :               ",
"            : : : : : 1 a.r.T ; : : : : : : ! 1.1.M : : : : : : ; T w.a.1 : : : : :             ",
"          : : : 1 T W r.d.G f.W W C : r ....:.X.X.:.....r : C W W f.G d.r.W T 1 : : :           ",
"          : : : T l.q.E g % Y q.i.f.: =.2.O.X.6 6 X.O.5.=.: f.i.q.Y $ g Q q.l.T : : :           ",
"        : : : : > t.i.< ; ; $ Q a.l : 0 1.*.& ; ; & *.1.0 : l h.Q $ ; ; < i.t.- : : : :         ",
"        : : : : : + 0.e.; ; S h.= ; : % o >. .; ;  .>.o % : : = h.S ; ; e.0.+ : : : : :         ",
"      : : : : : : : r.K J Q < s.1 : : ; ; 1.s  . .s 1.: : : : 1 s.< Q J K r.: : : : : : :       ",
"      : : : : : : : s.u.p.r.a.p.L : : : y 8.>.:.>.>.8.y ; : : J i.p.r.p.u.j.: : : : : : :       ",
"      : : : : : : : w.q.@ + G u.k ; : : q :.} + + } >.q ; : : B i.G + @ 0.w.: : : : : : :       ",
"    : : : : : : : : + + : : % + ; : : : : + % , ; $ + : : : : ; . % : : $ + : : : : : : : :     ",
"    : : : : : : : : : : m [ : : ; : : : : : : ( ( : ; ; : : : : : : [ m : : : : : : : : : :     ",
"    : : : : : : : : : : 5.9.M : : : : : : : w Z.Z.N : : : : : : : M 9.5.: : : : : : : : : :     ",
"    : : : : : : : : : y 6.o.@.: : : : : : : ;.m.m.;.: : : : : : : @.X.6.m : : : : : : : : :     ",
"    : : : : : : m 3.4.5.o.p 6.4.4...; ;.M.M.B.;.;.V.M.M.;.: ..4.4.8.p o.5.4.3.m : : : : : :     ",
"    : : : : : : ` 9.n u + : 8 d <.:.: b.V.-.x % % x -.V.v.: *.<.d 8 ; + u n 8.` : : : : : :     ",
"    : : : : : : $ b 8.] : : e 5.&.4 : $ c.Z.^ : : ^ B.c.$ ; # #.5.e : : ~ 9.b % : : : : : :     ",
"    : : : : : : : %  .#.: : s 1.+ : : : % n.x.: w ;.m.$ ; ; : $ 1.s : ; %.} % : : : : : : :     ",
"    : : : : : : : : >.' :.5.~ 6.y : : : : Z./ N.N./ Z.q ; ; : a 6.~ 5.:.' 4.: : : : : : : :     ",
"    : : : : : : : : 9.6.o.f 6.7.{ : : : ^ Z.V.;.;.V.Z.^ : ; ; { 7.6.f o.6.9.: : : : : : : :     ",
"    : : : : : : : : b i $ ; 4 ' 6 : : : % ;.z % % z ;.; : : : 6 n 4 % $ i c : : : : : : : :     ",
"    : : : : : : : : % % : : : % : : : : ; % : : : : % : : : : ; : : : : : : : : : : : : : :     ",
"      : : : : : : : : : W d., : : : : : ; ; : #.=.: : : : : : : : : d.W : : : : : : : : :       ",
"      : : : : : : : : : a.i.J : : : : : ; ; m 8.6.y : : : : : : : J i.s.; : : : : : : : :       ",
"      : : : : : : N C P i.U d.N V : : : m y #.&.+.o.m a : : , V C y.K i.P V N : : : : : :       ",
"        : : : : I k.p.p.A - u.p.a.d.: #.6.1.4.p p ,.<.6.%.: i.a.p.u.> A p.p.k.I : : : :         ",
"        : : : : k s.E X % : X Z s.U : v 6.' . % : X ' 6.v : Y g.Z + : % X E a.k : : : :         ",
"          : : : % = u.Q : : V l.l $ : % 9 5.[ : : [ 5.9 % : + l s.C : : Q u.* : : : :           ",
"          : : : : : q.E 3 S 3 a.& : : : : :._ m m ~ :.: : : ; ; a.2 S 3 T q.: : : : ;           ",
"            : : : : s.W s.a.r.i.F : : : e 6.@.6.6.o.8.e : : ; S i.r.s.s.E s.: : : :             ",
"              : : : s.p.h O w.k.D : : : t 8.>.5 5 >.8.t : : : F l.r.O h f.s.: : :               ",
"                : : . X : : + . % : : : % o + : : + o % : : : % . + ; : X . : :                 ",
"                  : ; : : : : : : : : : : : : : : : : : : : : : : : : : : : :                   ",
"                    ; : : : : : : : : : : : : : : : : : : : : : : : : : : :                     ",
"                      : : : : : : : : : : : : : : : : : : : : : : : : : :                       ",
"                          ; : : : : : : : : : : : : : : : : : : : : :                           ",
"                              : : : : : : : : : : : : : : : : : :                               ",
"                                    : : : : : : : : : : : :                                     ",
"                                                                                                ",
"                                                                                                "
};
